<?xml version="1.0" encoding="utf-8"?>
<!-- Generator: Adobe Illustrator 15.0.0, SVG Export Plug-In . SVG Version: 6.00 Build 0)  -->
<!DOCTYPE svg PUBLIC "-//W3C//DTD SVG 1.1//EN" "http://www.w3.org/Graphics/SVG/1.1/DTD/svg11.dtd">
<svg version="1.1" id="Layer_1" xmlns="http://www.w3.org/2000/svg" xmlns:xlink="http://www.w3.org/1999/xlink" x="0px" y="0px"
	 width="182.48px" height="50px" viewBox="0 0 182.48 50" enable-background="new 0 0 182.48 50" xml:space="preserve">
<g>
	<path fill="#231F20" d="M50.705,29.08c-0.725,0.119-1.388,0.21-2.052,0.21c-3.408,0-4.795-0.755-4.795-4.795v-9.471l-2.834-0.421
		c-0.332-0.06-0.603-0.272-0.603-0.603v-1.357c0-0.332,0.271-0.603,0.603-0.603h2.834V9.566c0-0.332,0.272-0.543,0.604-0.603
		l2.803-0.483c0.032,0,0.092,0,0.122,0c0.272,0,0.481,0.151,0.481,0.452v3.107h2.715c0.333,0,0.603,0.271,0.603,0.603v1.779
		c0,0.332-0.271,0.603-0.603,0.603h-2.715v9.471c0,1.508,0.092,1.689,1.177,1.689h1.599c0.392,0,0.632,0.151,0.632,0.452v1.899
		C51.277,28.836,51.096,29.018,50.705,29.08z"/>
	<path fill="#231F20" d="M66.729,29.05h-2.775c-0.332,0-0.604-0.272-0.604-0.604v-0.694c-1.568,1.025-2.804,1.51-4.734,1.51
		c-1.51,0-2.834-0.396-3.709-1.268c-1.116-1.118-1.509-2.987-1.509-5.49v-9.831c0-0.333,0.271-0.634,0.605-0.634h2.773
		c0.33,0,0.603,0.301,0.603,0.634v9.831c0,1.507,0.121,2.383,0.693,2.896c0.422,0.36,0.935,0.542,1.871,0.542
		c1.116,0,2.563-0.754,3.407-1.206V12.673c0-0.333,0.271-0.634,0.604-0.634h2.775c0.332,0,0.603,0.301,0.603,0.634v15.773
		C67.332,28.777,67.061,29.05,66.729,29.05z"/>
	<path fill="#231F20" d="M78.748,15.206c-1.628,0-2.895,0.421-4.162,1.086v12.125c0,0.331-0.271,0.634-0.603,0.634H71.21
		c-0.333,0-0.604-0.303-0.604-0.634V12.642c0-0.332,0.271-0.603,0.604-0.603h2.623c0.332,0,0.604,0.271,0.604,0.603v0.633
		c1.478-1.146,3.107-1.447,4.312-1.447c0.333,0,0.603,0.271,0.603,0.602v2.172C79.351,14.934,79.081,15.206,78.748,15.206z"/>
	<path fill="#231F20" d="M94.777,29.05h-2.773c-0.333,0-0.605-0.303-0.605-0.634v-9.833c0-2.625-0.241-3.378-2.562-3.378
		c-1.026,0-2.143,0.421-3.408,1.086v12.125c0,0.331-0.272,0.634-0.603,0.634h-2.774c-0.333,0-0.605-0.303-0.605-0.634V12.642
		c0-0.332,0.272-0.603,0.605-0.603h2.623c0.332,0,0.603,0.271,0.603,0.603v0.633c1.75-1.115,2.896-1.447,4.886-1.447
		c4.342,0,5.217,2.925,5.217,6.755v9.833C95.38,28.747,95.108,29.05,94.777,29.05z"/>
	<path fill="#231F20" d="M106.818,29.108c-0.604,0.091-1.389,0.153-1.959,0.153c-2.776,0-4.104-0.727-4.104-4.042V14.693
		l-2.924-0.332c-0.333-0.03-0.574-0.21-0.574-0.542v-0.814c0-0.332,0.241-0.544,0.574-0.544h2.924V9.505
		c0-0.301,0.211-0.542,0.544-0.603l1.568-0.241c0.029,0,0.06,0,0.09,0c0.241,0,0.453,0.21,0.453,0.513v3.287h3.258
		c0.33,0,0.603,0.271,0.603,0.603v1.026c0,0.332-0.272,0.603-0.603,0.603h-3.258v10.526c0,1.657,0.422,1.901,1.628,1.901h1.689
		c0.421,0,0.633,0.119,0.633,0.42v1.056C107.36,28.866,107.209,29.05,106.818,29.108z"/>
	<path fill="#231F20" d="M115.39,29.262c-4.432,0-6.696-2.927-6.696-7.362v-2.29c0-4.436,2.264-7.36,6.696-7.36
		c4.435,0,6.727,2.924,6.727,7.36v2.29C122.117,26.335,119.824,29.262,115.39,29.262z M119.462,19.61
		c0-3.077-1.236-5.038-4.072-5.038c-2.804,0-4.041,1.931-4.041,5.038v2.29c0,3.078,1.206,5.039,4.041,5.039
		c2.806,0,4.072-1.931,4.072-5.039V19.61z"/>
	<path fill="#231F20" d="M133.676,29.08c-0.724,0.119-1.387,0.21-2.052,0.21c-3.407,0-4.796-0.755-4.796-4.795v-9.471l-2.834-0.421
		c-0.331-0.06-0.603-0.272-0.603-0.603v-1.357c0-0.332,0.272-0.603,0.603-0.603h2.834V9.566c0-0.332,0.273-0.543,0.604-0.603
		l2.804-0.483c0.031,0,0.093,0,0.121,0c0.271,0,0.482,0.151,0.482,0.452v3.107h2.715c0.333,0,0.604,0.271,0.604,0.603v1.779
		c0,0.332-0.271,0.603-0.604,0.603h-2.715v9.471c0,1.508,0.092,1.689,1.177,1.689h1.599c0.391,0,0.631,0.151,0.631,0.452v1.899
		C134.247,28.836,134.068,29.018,133.676,29.08z"/>
	<path fill="#231F20" d="M149.488,21.932h-9.832v0.09c0,1.75,0.725,3.83,3.618,3.83c2.203,0,4.284-0.181,5.55-0.301
		c0.03,0,0.06,0,0.091,0c0.301,0,0.543,0.15,0.543,0.452v1.991c0,0.482-0.092,0.692-0.634,0.783
		c-1.96,0.361-3.137,0.513-5.851,0.513c-3.016,0-7.297-1.627-7.297-7.57v-2.232c0-4.704,2.623-7.66,7.236-7.66
		c4.646,0,7.18,3.166,7.18,7.66v1.689C150.093,21.659,149.909,21.932,149.488,21.932z M146.081,18.976
		c0-2.353-1.3-3.709-3.167-3.709c-1.869,0-3.227,1.326-3.227,3.709v0.12h6.394V18.976z"/>
	<path fill="#231F20" d="M163.091,28.898c-0.691,0.182-2.049,0.392-3.889,0.392c-3.922,0-6.877-2.414-6.877-7.328v-2.805
		c0-4.916,2.956-7.329,6.877-7.329c1.84,0,3.197,0.211,3.889,0.392c0.514,0.12,0.635,0.301,0.635,0.784v1.96
		c0,0.302-0.24,0.453-0.543,0.453c-0.031,0-0.061,0-0.092,0c-1.205-0.15-1.932-0.211-3.889-0.211c-1.418,0-2.896,0.814-2.896,3.951
		v2.805c0,3.136,1.479,3.949,2.896,3.949c1.957,0,2.684-0.06,3.889-0.21c0.031,0,0.061,0,0.092,0c0.303,0,0.543,0.15,0.543,0.452
		v1.96C163.726,28.596,163.605,28.777,163.091,28.898z"/>
	<path fill="#231F20" d="M179.525,29.05h-2.773c-0.334,0-0.605-0.303-0.605-0.634v-9.922c0-2.625-0.451-3.288-2.473-3.288
		c-1.027,0-2.23,0.361-3.498,1.026v12.185c0,0.331-0.273,0.634-0.602,0.634h-2.775c-0.334,0-0.604-0.303-0.604-0.634V6.7
		c0-0.332,0.27-0.603,0.604-0.603h2.775c0.328,0,0.602,0.271,0.602,0.603v6.243c1.145-0.693,2.414-1.115,4.555-1.115
		c4.16,0,5.396,2.956,5.396,6.666v9.922C180.126,28.747,179.857,29.05,179.525,29.05z"/>
</g>
<g>
	<g>
		<path fill="#231F20" d="M41.356,33.884v3.476c0,0.376,0.021,0.664,0.063,0.862c0.042,0.195,0.113,0.354,0.215,0.476
			c0.244,0.265,0.674,0.4,1.289,0.4h1.282v0.753h-1.469c-0.461,0-0.834-0.044-1.121-0.135c-0.288-0.093-0.534-0.248-0.738-0.467
			c-0.09-0.095-0.168-0.196-0.23-0.307c-0.064-0.112-0.114-0.234-0.149-0.377c-0.036-0.14-0.064-0.301-0.082-0.479
			c-0.018-0.18-0.027-0.383-0.027-0.608v-3.594H41.356z"/>
		<path fill="#231F20" d="M49.312,34.628h-1.738c-0.214,0-0.404,0.011-0.564,0.034c-0.162,0.025-0.303,0.066-0.425,0.123
			c-0.123,0.059-0.229,0.134-0.319,0.223c-0.089,0.091-0.173,0.203-0.251,0.333c-0.046,0.08-0.087,0.156-0.116,0.233
			c-0.029,0.074-0.056,0.154-0.076,0.238c-0.021,0.084-0.038,0.182-0.048,0.29c-0.012,0.108-0.023,0.231-0.028,0.37h3.566v0.755
			h-3.575c0.006,0.447,0.101,0.839,0.286,1.168c0.149,0.259,0.336,0.44,0.562,0.545c0.223,0.105,0.536,0.157,0.936,0.157h1.792
			v0.753h-1.961c-0.264,0-0.5-0.014-0.709-0.044c-0.21-0.03-0.395-0.077-0.56-0.145c-0.165-0.066-0.314-0.149-0.449-0.255
			c-0.134-0.104-0.258-0.233-0.371-0.39c-0.203-0.27-0.35-0.564-0.44-0.884c-0.089-0.316-0.134-0.701-0.134-1.149
			c0-1.213,0.348-2.093,1.048-2.643c0.208-0.162,0.465-0.281,0.766-0.356c0.302-0.073,0.676-0.11,1.125-0.11h1.684V34.628z"/>
		<path fill="#231F20" d="M52.562,33.875h1.254l2.373,5.976h-1.011l-0.61-1.56h-2.831l-0.636,1.56h-1.011L52.562,33.875z
			 M52.024,37.538h2.239L53.171,34.6L52.024,37.538z"/>
		<path fill="#231F20" d="M58.066,39.851h-0.969v-5.976h2.724c0.432,0,0.776,0.028,1.04,0.086c0.263,0.057,0.481,0.144,0.654,0.264
			c0.19,0.144,0.342,0.331,0.453,0.559c0.11,0.233,0.167,0.482,0.167,0.75c0,0.258-0.045,0.491-0.135,0.705
			c-0.091,0.213-0.223,0.386-0.396,0.525c-0.101,0.083-0.203,0.147-0.303,0.197c-0.103,0.048-0.24,0.096-0.412,0.143
			c0.197,0.089,0.362,0.182,0.497,0.281c0.134,0.098,0.243,0.217,0.326,0.354c0.084,0.137,0.147,0.304,0.188,0.5
			c0.042,0.196,0.072,0.433,0.091,0.707c0.012,0.18,0.02,0.316,0.026,0.413c0.007,0.096,0.015,0.171,0.027,0.228
			c0.013,0.058,0.025,0.104,0.041,0.139c0.015,0.038,0.038,0.077,0.067,0.125h-0.995c-0.018-0.043-0.031-0.074-0.04-0.096
			c-0.01-0.025-0.021-0.079-0.031-0.153c-0.012-0.149-0.022-0.264-0.028-0.342c-0.005-0.078-0.014-0.168-0.026-0.27
			c-0.029-0.31-0.086-0.573-0.169-0.786c-0.084-0.216-0.203-0.387-0.361-0.517c-0.157-0.128-0.359-0.221-0.601-0.276
			c-0.245-0.059-0.542-0.087-0.891-0.087h-0.944V39.851z M59.759,36.572c0.279,0,0.498-0.016,0.654-0.046
			c0.158-0.03,0.28-0.08,0.371-0.153c0.219-0.184,0.328-0.439,0.328-0.778c0-0.191-0.034-0.364-0.102-0.518
			c-0.07-0.147-0.168-0.259-0.298-0.331c-0.083-0.043-0.195-0.073-0.335-0.089c-0.14-0.02-0.345-0.029-0.618-0.029h-1.692v1.944
			H59.759z"/>
		<path fill="#231F20" d="M64.278,39.851h-0.923v-5.976h1.138l3.056,4.782v-4.782h0.923v5.976h-1.102l-3.091-4.765V39.851z"/>
		<path fill="#231F20" d="M72.797,37.298h-0.896v-0.969h0.896V37.298z"/>
		<path fill="#231F20" d="M76.238,33.875h2.859c0.232,0,0.438,0.007,0.61,0.021c0.173,0.016,0.324,0.041,0.456,0.076
			c0.131,0.038,0.244,0.084,0.336,0.145c0.093,0.061,0.18,0.136,0.265,0.225c0.125,0.137,0.222,0.297,0.292,0.48
			c0.068,0.182,0.102,0.378,0.102,0.588c0,0.634-0.305,1.092-0.914,1.373c0.358,0.124,0.617,0.295,0.776,0.515
			c0.157,0.217,0.237,0.505,0.237,0.861c0,0.299-0.059,0.569-0.179,0.811c-0.121,0.242-0.294,0.431-0.521,0.569
			c-0.168,0.106-0.388,0.187-0.66,0.235c-0.272,0.052-0.616,0.076-1.027,0.076h-2.631V33.875z M79.102,36.411
			c0.19,0,0.342-0.015,0.458-0.043c0.116-0.025,0.216-0.073,0.3-0.139c0.208-0.162,0.312-0.403,0.312-0.715
			c0-0.139-0.02-0.267-0.062-0.381c-0.042-0.113-0.104-0.21-0.187-0.288c-0.083-0.086-0.182-0.143-0.295-0.173
			s-0.29-0.045-0.526-0.045h-1.895v1.783H79.102z M79.02,39.098c0.812,0,1.216-0.331,1.216-0.997c0-0.337-0.088-0.577-0.263-0.72
			c-0.177-0.146-0.466-0.217-0.872-0.217h-1.895v1.934H79.02z"/>
		<path fill="#231F20" d="M83.352,37.433c0,0.346,0.022,0.618,0.067,0.815c0.045,0.196,0.119,0.354,0.227,0.474
			c0.256,0.31,0.681,0.467,1.273,0.467c0.339,0,0.629-0.052,0.87-0.153c0.24-0.1,0.419-0.249,0.539-0.447
			c0.034-0.055,0.063-0.115,0.084-0.183c0.022-0.07,0.039-0.15,0.054-0.242c0.014-0.095,0.024-0.205,0.031-0.337
			c0.005-0.13,0.009-0.288,0.009-0.467v-3.476h0.966v3.476c0,0.287-0.006,0.529-0.022,0.727c-0.014,0.198-0.043,0.367-0.085,0.515
			s-0.099,0.274-0.168,0.381c-0.073,0.107-0.162,0.212-0.27,0.312c-0.473,0.433-1.184,0.648-2.133,0.648
			c-0.496,0-0.91-0.069-1.24-0.21c-0.333-0.137-0.6-0.356-0.802-0.65c-0.072-0.098-0.129-0.199-0.175-0.304
			c-0.044-0.109-0.081-0.227-0.113-0.354c-0.029-0.128-0.05-0.274-0.062-0.435c-0.012-0.162-0.018-0.348-0.018-0.556v-3.549h0.967
			V37.433z"/>
		<path fill="#231F20" d="M88.892,33.875h0.969v5.976h-0.969V33.875z"/>
		<path fill="#231F20" d="M92.238,33.884v3.476c0,0.376,0.021,0.664,0.064,0.862c0.041,0.195,0.112,0.354,0.215,0.476
			c0.244,0.265,0.674,0.4,1.289,0.4h1.282v0.753H93.62c-0.462,0-0.834-0.044-1.122-0.135c-0.288-0.093-0.533-0.248-0.738-0.467
			c-0.09-0.095-0.167-0.196-0.23-0.307c-0.064-0.112-0.115-0.234-0.149-0.377c-0.037-0.14-0.064-0.301-0.082-0.479
			c-0.019-0.18-0.027-0.383-0.027-0.608v-3.594H92.238z"/>
		<path fill="#231F20" d="M98.285,33.875c0.31,0,0.581,0.011,0.808,0.032s0.424,0.055,0.595,0.106s0.321,0.12,0.453,0.205
			c0.13,0.087,0.26,0.197,0.385,0.328c0.263,0.275,0.455,0.595,0.573,0.954s0.179,0.798,0.179,1.303c0,0.685-0.095,1.25-0.287,1.708
			c-0.192,0.458-0.474,0.796-0.851,1.017c-0.107,0.066-0.216,0.121-0.324,0.162s-0.227,0.073-0.357,0.098
			c-0.13,0.023-0.283,0.041-0.457,0.049c-0.173,0.009-0.384,0.014-0.628,0.014h-2.384v-5.976H98.285z M96.959,39.098h1.514
			c0.362,0,0.658-0.048,0.887-0.147c0.229-0.099,0.412-0.261,0.547-0.483c0.12-0.172,0.207-0.39,0.264-0.649
			c0.056-0.262,0.085-0.554,0.085-0.878c0-0.39-0.039-0.74-0.122-1.054c-0.08-0.312-0.191-0.562-0.333-0.755
			c-0.137-0.181-0.312-0.309-0.526-0.387c-0.213-0.078-0.502-0.116-0.865-0.116h-1.452V39.098z"/>
		<path fill="#231F20" d="M106.395,33.875h1.254l2.374,5.976h-1.011l-0.611-1.56h-2.831l-0.636,1.56h-1.011L106.395,33.875z
			 M105.858,37.538h2.238l-1.091-2.938L105.858,37.538z"/>
		<path fill="#231F20" d="M111.898,39.851h-0.968v-5.976h2.645c0.208,0,0.394,0.009,0.554,0.027c0.164,0.018,0.305,0.044,0.432,0.08
			c0.125,0.035,0.24,0.085,0.339,0.147c0.103,0.062,0.201,0.139,0.296,0.229c0.339,0.335,0.512,0.8,0.512,1.397
			c0,0.341-0.06,0.646-0.175,0.919c-0.117,0.271-0.279,0.49-0.487,0.659c-0.161,0.124-0.369,0.215-0.624,0.267
			c-0.251,0.056-0.594,0.08-1.021,0.08h-1.503V39.851z M113.461,36.929c0.245,0,0.439-0.021,0.586-0.062
			c0.146-0.042,0.265-0.113,0.361-0.217c0.082-0.089,0.15-0.218,0.201-0.381c0.049-0.168,0.075-0.344,0.075-0.531
			c0-0.187-0.028-0.355-0.083-0.511c-0.059-0.151-0.135-0.276-0.239-0.374c-0.083-0.082-0.197-0.141-0.343-0.176
			c-0.145-0.03-0.343-0.049-0.595-0.049h-1.527v2.301H113.461z"/>
		<path fill="#231F20" d="M117.672,39.851h-0.968v-5.976h2.644c0.208,0,0.394,0.009,0.555,0.027c0.163,0.018,0.304,0.044,0.432,0.08
			c0.124,0.035,0.239,0.085,0.339,0.147c0.102,0.062,0.199,0.139,0.295,0.229c0.339,0.335,0.512,0.8,0.512,1.397
			c0,0.341-0.06,0.646-0.174,0.919c-0.117,0.271-0.28,0.49-0.488,0.659c-0.162,0.124-0.369,0.215-0.622,0.267
			c-0.253,0.056-0.595,0.08-1.023,0.08h-1.502V39.851z M119.235,36.929c0.245,0,0.438-0.021,0.585-0.062
			c0.147-0.042,0.266-0.113,0.362-0.217c0.082-0.089,0.15-0.218,0.2-0.381c0.05-0.168,0.076-0.344,0.076-0.531
			c0-0.187-0.027-0.355-0.084-0.511c-0.057-0.151-0.136-0.276-0.237-0.374c-0.083-0.082-0.198-0.141-0.344-0.176
			c-0.145-0.03-0.343-0.049-0.594-0.049h-1.526v2.301H119.235z"/>
		<path fill="#231F20" d="M122.505,39.098h2.58c0.226,0,0.406-0.009,0.54-0.034c0.13-0.022,0.244-0.065,0.339-0.128
			c0.252-0.149,0.375-0.402,0.375-0.755c0-0.229-0.045-0.419-0.139-0.571c-0.092-0.153-0.227-0.257-0.397-0.312
			c-0.083-0.023-0.189-0.04-0.322-0.051c-0.131-0.007-0.321-0.014-0.57-0.014h-0.493c-0.376,0-0.683-0.021-0.92-0.069
			c-0.239-0.047-0.437-0.129-0.591-0.235c-0.197-0.13-0.345-0.303-0.452-0.518c-0.103-0.216-0.156-0.458-0.156-0.736
			c0-0.34,0.077-0.646,0.23-0.913c0.155-0.269,0.366-0.48,0.639-0.636c0.168-0.091,0.363-0.153,0.586-0.192
			c0.225-0.039,0.516-0.059,0.875-0.059h2.455v0.753h-2.455c-0.263,0-0.464,0.015-0.605,0.04c-0.141,0.026-0.262,0.072-0.363,0.13
			c-0.102,0.072-0.184,0.172-0.247,0.301c-0.062,0.132-0.094,0.275-0.094,0.438c0,0.309,0.099,0.522,0.3,0.648
			c0.199,0.126,0.534,0.19,1.005,0.19h0.357c0.263,0,0.489,0.007,0.676,0.016c0.187,0.015,0.352,0.032,0.492,0.061
			c0.141,0.027,0.257,0.062,0.357,0.107c0.099,0.044,0.188,0.1,0.272,0.165c0.184,0.157,0.328,0.356,0.429,0.601
			c0.103,0.245,0.151,0.517,0.151,0.815c0,0.353-0.076,0.657-0.226,0.913c-0.148,0.257-0.367,0.454-0.65,0.593
			c-0.084,0.043-0.17,0.077-0.262,0.104c-0.09,0.025-0.191,0.047-0.307,0.062c-0.117,0.015-0.252,0.025-0.404,0.032
			c-0.153,0.005-0.333,0.007-0.543,0.007h-2.463V39.098z"/>
		<path fill="#231F20" d="M131.375,37.298h-0.896v-0.969h0.896V37.298z"/>
		<path fill="#231F20" d="M139.627,36.438v3.413h-2.212c-0.288,0-0.537-0.011-0.752-0.03c-0.216-0.023-0.407-0.057-0.573-0.104
			c-0.168-0.046-0.319-0.112-0.454-0.192c-0.133-0.081-0.264-0.18-0.389-0.301c-0.27-0.258-0.465-0.573-0.586-0.945
			c-0.123-0.372-0.183-0.835-0.183-1.384c0-1.32,0.367-2.2,1.101-2.644c0.112-0.071,0.23-0.132,0.354-0.18
			c0.123-0.047,0.255-0.086,0.402-0.116c0.146-0.03,0.312-0.052,0.498-0.062c0.186-0.012,0.394-0.018,0.628-0.018h2.167v0.753
			h-2.083c-0.197,0-0.359,0.004-0.487,0.01c-0.128,0.005-0.24,0.02-0.331,0.035c-0.093,0.018-0.176,0.043-0.247,0.071
			c-0.071,0.03-0.146,0.069-0.224,0.115c-0.505,0.313-0.76,0.967-0.76,1.961c0,0.195,0.006,0.368,0.019,0.525
			c0.01,0.154,0.03,0.295,0.057,0.422c0.026,0.124,0.062,0.244,0.108,0.351c0.042,0.106,0.099,0.212,0.165,0.315
			c0.082,0.132,0.169,0.238,0.264,0.324c0.091,0.085,0.202,0.151,0.333,0.202c0.131,0.05,0.283,0.086,0.458,0.107
			c0.176,0.021,0.389,0.03,0.638,0.03h1.123v-1.909h-1.836v-0.751H139.627z"/>
		<path fill="#231F20" d="M145.269,34.628h-1.738c-0.216,0-0.404,0.011-0.564,0.034c-0.162,0.025-0.305,0.066-0.426,0.123
			c-0.123,0.059-0.228,0.134-0.319,0.223c-0.091,0.091-0.172,0.203-0.25,0.333c-0.047,0.08-0.087,0.156-0.117,0.233
			c-0.029,0.074-0.056,0.154-0.076,0.238c-0.021,0.084-0.038,0.182-0.048,0.29c-0.014,0.108-0.023,0.231-0.029,0.37h3.566v0.755
			h-3.575c0.005,0.447,0.101,0.839,0.287,1.168c0.147,0.259,0.336,0.44,0.561,0.545c0.225,0.105,0.536,0.157,0.937,0.157h1.792
			v0.753h-1.962c-0.264,0-0.499-0.014-0.708-0.044c-0.208-0.03-0.394-0.077-0.56-0.145c-0.163-0.066-0.313-0.149-0.448-0.255
			c-0.133-0.104-0.258-0.233-0.372-0.39c-0.202-0.27-0.349-0.564-0.44-0.884c-0.087-0.316-0.133-0.701-0.133-1.149
			c0-1.213,0.348-2.093,1.048-2.643c0.209-0.162,0.464-0.281,0.767-0.356c0.301-0.073,0.675-0.11,1.124-0.11h1.685V34.628z"/>
		<path fill="#231F20" d="M146.04,34.628v-0.753h5.098v0.753h-2.061v5.223h-0.969v-5.223H146.04z"/>
		<path fill="#231F20" d="M159.193,39.851h-0.967v-2.643h-3.135v2.643h-0.969v-5.967h0.969v2.569h3.135v-2.569h0.967V39.851z"/>
		<path fill="#231F20" d="M160.662,33.875h0.969v5.976h-0.969V33.875z"/>
		<path fill="#231F20" d="M164.05,39.851h-0.967v-5.976h2.723c0.432,0,0.775,0.028,1.039,0.086c0.264,0.057,0.482,0.144,0.656,0.264
			c0.189,0.144,0.342,0.331,0.451,0.559c0.111,0.233,0.166,0.482,0.166,0.75c0,0.258-0.045,0.491-0.135,0.705
			c-0.09,0.213-0.221,0.386-0.396,0.525c-0.1,0.083-0.201,0.147-0.303,0.197c-0.102,0.048-0.238,0.096-0.41,0.143
			c0.197,0.089,0.361,0.182,0.496,0.281c0.133,0.098,0.242,0.217,0.326,0.354c0.086,0.137,0.148,0.304,0.189,0.5
			s0.07,0.433,0.09,0.707c0.012,0.18,0.02,0.316,0.025,0.413c0.008,0.096,0.016,0.171,0.027,0.228
			c0.012,0.058,0.023,0.104,0.039,0.139c0.018,0.038,0.041,0.077,0.068,0.125h-0.994c-0.018-0.043-0.031-0.074-0.041-0.096
			c-0.008-0.025-0.02-0.079-0.029-0.153c-0.012-0.149-0.023-0.264-0.029-0.342c-0.004-0.078-0.014-0.168-0.023-0.27
			c-0.031-0.31-0.088-0.573-0.172-0.786c-0.084-0.216-0.203-0.387-0.359-0.517c-0.158-0.128-0.359-0.221-0.602-0.276
			c-0.244-0.059-0.539-0.087-0.891-0.087h-0.945V39.851z M165.746,36.572c0.277,0,0.494-0.016,0.65-0.046
			c0.16-0.03,0.281-0.08,0.373-0.153c0.219-0.184,0.33-0.439,0.33-0.778c0-0.191-0.037-0.364-0.104-0.518
			c-0.07-0.147-0.168-0.259-0.299-0.331c-0.084-0.043-0.195-0.073-0.334-0.089c-0.141-0.02-0.348-0.029-0.617-0.029h-1.695v1.944
			H165.746z"/>
		<path fill="#231F20" d="M173.603,34.628h-1.738c-0.213,0-0.404,0.011-0.564,0.034c-0.16,0.025-0.303,0.066-0.424,0.123
			c-0.123,0.059-0.229,0.134-0.318,0.223c-0.092,0.091-0.174,0.203-0.254,0.333c-0.043,0.08-0.084,0.156-0.115,0.233
			c-0.029,0.074-0.055,0.154-0.074,0.238c-0.021,0.084-0.039,0.182-0.051,0.29c-0.01,0.108-0.021,0.231-0.027,0.37h3.566v0.755
			h-3.574c0.006,0.447,0.1,0.839,0.285,1.168c0.15,0.259,0.336,0.44,0.562,0.545c0.225,0.105,0.537,0.157,0.936,0.157h1.791v0.753
			h-1.961c-0.264,0-0.498-0.014-0.709-0.044c-0.209-0.03-0.395-0.077-0.559-0.145c-0.166-0.066-0.314-0.149-0.451-0.255
			c-0.131-0.104-0.256-0.233-0.367-0.39c-0.205-0.27-0.352-0.564-0.441-0.884c-0.09-0.316-0.135-0.701-0.135-1.149
			c0-1.213,0.348-2.093,1.049-2.643c0.209-0.162,0.463-0.281,0.766-0.356c0.303-0.073,0.676-0.11,1.125-0.11h1.684V34.628z"/>
		<path fill="#231F20" d="M177.136,33.875c0.311,0,0.582,0.011,0.807,0.032c0.227,0.021,0.424,0.055,0.596,0.106
			c0.17,0.052,0.322,0.12,0.453,0.205c0.131,0.087,0.26,0.197,0.385,0.328c0.264,0.275,0.455,0.595,0.574,0.954
			s0.178,0.798,0.178,1.303c0,0.685-0.094,1.25-0.287,1.708c-0.191,0.458-0.473,0.796-0.85,1.017
			c-0.107,0.066-0.217,0.121-0.324,0.162s-0.227,0.073-0.357,0.098c-0.131,0.023-0.283,0.041-0.455,0.049
			c-0.174,0.009-0.383,0.014-0.629,0.014h-2.385v-5.976H177.136z M175.81,39.098h1.514c0.363,0,0.66-0.048,0.889-0.147
			c0.229-0.099,0.41-0.261,0.549-0.483c0.117-0.172,0.205-0.39,0.262-0.649c0.057-0.262,0.086-0.554,0.086-0.878
			c0-0.39-0.041-0.74-0.121-1.054c-0.08-0.312-0.193-0.562-0.334-0.755c-0.137-0.181-0.311-0.309-0.527-0.387
			c-0.211-0.078-0.502-0.116-0.863-0.116h-1.453V39.098z"/>
	</g>
</g>
<g>
	
		<radialGradient id="SVGID_1_" cx="-1138.9141" cy="37400.918" r="14.4723" gradientTransform="matrix(0.7011 -0.0118 0.0025 0.1424 710.6711 -5293.1177)" gradientUnits="userSpaceOnUse">
		<stop  offset="0" style="stop-color:#BBBDBF"/>
		<stop  offset="1" style="stop-color:#FFFFFF;stop-opacity:0"/>
	</radialGradient>
	<path opacity="0.72" fill="url(#SVGID_1_)" d="M19.881,45.973c0.02,1.253-6.318,2.364-14.156,2.501
		c-7.844,0.13-14.219-0.772-14.245-2.024c-0.024-1.25,6.315-2.368,14.158-2.5C13.482,43.823,19.867,44.723,19.881,45.973z"/>
</g>
<g>
	<g>
		<path fill="#231F20" d="M19.884,27.65c-0.033,0.156,0.154,1.65,0.418,3.313c0.272,1.669,0.562,3.145,0.644,3.28
			c0.089,0.137,1.506,0.033,2.817-0.175c1.307-0.214,2.649,1.305,2.982,3.369c0.332,2.063,0.668,3.867,0.75,4.006
			c0.082,0.139,2.055-0.056,4.075-0.379c2.022-0.321,3.771-0.659,3.881-0.746c0.118-0.086-0.128-2.281-0.487-4.513
			c-0.355-2.23-0.714-4.172-0.799-4.309c-0.082-0.139-1.925,0.034-3.782,0.333c-1.862,0.298-3.578-0.686-3.819-2.183
			c-0.24-1.5-0.508-2.84-0.595-2.979c-0.082-0.141-1.625-0.014-3.082,0.221C21.424,27.121,19.926,27.492,19.884,27.65z"/>
	</g>
</g>
<g>
	<g>
		<path fill="#231F20" d="M16.862,28.131c0.085,0.141,0.372,1.617,0.643,3.283c0.266,1.665,0.455,3.155,0.419,3.317
			c-0.036,0.155-1.416,0.502-2.728,0.714c-1.31,0.21-2.112,2.071-1.783,4.135c0.333,2.065,0.578,3.884,0.545,4.038
			c-0.033,0.16-1.968,0.593-3.988,0.915c-2.022,0.328-3.787,0.554-3.925,0.51c-0.135-0.045-0.589-2.206-0.948-4.438
			c-0.361-2.23-0.626-4.185-0.591-4.343c0.033-0.154,1.835-0.571,3.693-0.867c1.859-0.301,3.186-1.773,2.944-3.271
			c-0.238-1.498-0.404-2.854-0.368-3.011c0.04-0.159,1.542-0.527,3.001-0.759C15.24,28.12,16.777,27.994,16.862,28.131z"/>
	</g>
</g>
<g>
	<g>
		<path fill="#231F20" d="M16.578,24.698c0.031-0.137-0.128-1.424-0.359-2.855c-0.23-1.433-0.478-2.706-0.549-2.824
			c-0.08-0.117-1.297-0.028-2.425,0.15c-1.127,0.184-2.281-1.125-2.572-2.902c-0.286-1.779-0.575-3.33-0.644-3.448
			s-1.769,0.048-3.51,0.328c-1.733,0.278-3.241,0.565-3.343,0.641C3.075,13.864,3.291,15.753,3.6,17.67
			c0.311,1.921,0.613,3.592,0.688,3.713c0.067,0.118,1.655-0.028,3.252-0.286c1.603-0.257,3.084,0.588,3.289,1.879
			c0.208,1.29,0.438,2.442,0.513,2.561c0.073,0.118,1.396,0.016,2.658-0.188C15.254,25.146,16.546,24.833,16.578,24.698z"/>
	</g>
</g>
<g>
	<g>
		<path fill="#231F20" d="M19.179,24.277c-0.071-0.12-0.322-1.391-0.549-2.823c-0.229-1.433-0.395-2.72-0.36-2.854
			c0.031-0.137,1.22-0.437,2.346-0.62c1.128-0.178,1.816-1.78,1.534-3.56c-0.284-1.774-0.496-3.337-0.466-3.474
			c0.026-0.137,1.694-0.511,3.431-0.786c1.741-0.283,3.261-0.479,3.378-0.438s0.509,1.897,0.816,3.818
			c0.309,1.92,0.539,3.603,0.513,3.736c-0.031,0.137-1.585,0.497-3.184,0.752c-1.602,0.258-2.743,1.524-2.536,2.811
			c0.207,1.292,0.352,2.459,0.317,2.592c-0.033,0.137-1.322,0.456-2.583,0.657C20.579,24.291,19.253,24.398,19.179,24.277z"/>
	</g>
</g>
<g>
	<path fill="#231F20" d="M19.388,5.992C19.68,7.936,19.874,9.7,19.815,9.91c-0.058,0.208-2.092,0.685-4.036,0.979
		c-1.948,0.293-3.712,0.487-3.921,0.43c-0.21-0.061-0.687-2.095-0.981-4.044c-0.295-1.944-0.489-3.708-0.43-3.919
		c0.063-0.208,2.097-0.684,4.042-0.979c1.944-0.294,3.709-0.485,3.919-0.43C18.617,2.007,19.096,4.042,19.388,5.992z"/>
</g>
</svg>
